HIERARCHY
ROOT hip
{
  OFFSET 0 0 0
  CHANNELS 6 Xposition Yposition Zposition Zrotation Yrotation Xrotation
  JOINT abdomen
  {
    OFFSET 0 20.6881 -0.73152
    CHANNELS 3 Zrotation Xrotation Yrotation
    JOINT chest
    {
      OFFSET 0 11.7043 -0.48768
      CHANNELS 3 Zrotation Xrotation Yrotation
      JOINT neck
      {
        OFFSET 0 22.1894 -2.19456
        CHANNELS 3 Zrotation Xrotation Yrotation
        JOINT head
        {
          OFFSET -0.24384 7.07133 1.2192
          CHANNELS 3 Zrotation Xrotation Yrotation
          JOINT leftEye
          {
            OFFSET 4.14528 8.04674 8.04672
            CHANNELS 3 Zrotation Xrotation Yrotation
            End Site
            {
              OFFSET 1 0 0
            }
          }
          JOINT rightEye
          {
            OFFSET -3.6576 8.04674 8.04672
            CHANNELS 3 Zrotation Xrotation Yrotation
            End Site
            {
              OFFSET 1 0 0
            }
          }
        }
      }
      JOINT rCollar
      {
        OFFSET -2.68224 19.2634 -4.8768
        CHANNELS 3 Zrotation Xrotation Yrotation
        JOINT rShldr
        {
          OFFSET -8.77824 -1.95073 1.46304
          CHANNELS 3 Zrotation Xrotation Yrotation
          JOINT rForeArm
          {
            OFFSET -28.1742 -1.7115 0.48768
            CHANNELS 3 Zrotation Xrotation Yrotation
            JOINT rHand
            {
              OFFSET -22.5879 0.773209 7.07136
              CHANNELS 3 Zrotation Xrotation Yrotation
              JOINT rThumb1
              {
                OFFSET -1.2192 -0.487915 3.41376
                CHANNELS 3 Zrotation Xrotation Yrotation
                JOINT rThumb2
                {
                  OFFSET -3.37035 -0.52449 3.41376
                  CHANNELS 3 Zrotation Xrotation Yrotation
                  End Site
                  {
                    OFFSET -1.78271 -1.18214 1.43049
                  }
                }
              }
              JOINT rIndex1
              {
                OFFSET -7.75947 0.938293 5.60832
                CHANNELS 3 Zrotation Xrotation Yrotation
                JOINT rIndex2
                {
                  OFFSET -2.54057 -0.884171 1.56538
                  CHANNELS 3 Zrotation Xrotation Yrotation
                  End Site
                  {
                    OFFSET -1.62519 -0.234802 1.16502
                  }
                }
              }
              JOINT rMid1
              {
                OFFSET -8.24714 1.18213 3.41376
                CHANNELS 3 Zrotation Xrotation Yrotation
                JOINT rMid2
                {
                  OFFSET -3.10165 -0.590103 1.0647
                  CHANNELS 3 Zrotation Xrotation Yrotation
                  End Site
                  {
                    OFFSET -2.48547 -0.328903 0.83742
                  }
                }
              }
              JOINT rRing1
              {
                OFFSET -8.82822 0.546677 1.51678
                CHANNELS 3 Zrotation Xrotation Yrotation
                JOINT rRing2
                {
                  OFFSET -2.60934 -0.819778 -0.0198488
                  CHANNELS 3 Zrotation Xrotation Yrotation
                  End Site
                  {
                    OFFSET -2.33842 -0.294052 0.168128
                  }
                }
              }
              JOINT rPinky1
              {
                OFFSET -8.27202 -0.0477905 -0.4584
                CHANNELS 3 Zrotation Xrotation Yrotation
                JOINT rPinky2
                {
                  OFFSET -1.82734 -0.647385 -0.700984
                  CHANNELS 3 Zrotation Xrotation Yrotation
                  End Site
                  {
                    OFFSET -1.69225 -0.51767 -0.607171
                  }
                }
              }
            }
          }
        }
      }
      JOINT lCollar
      {
        OFFSET 2.68224 19.2634 -4.8768
        CHANNELS 3 Zrotation Xrotation Yrotation
        JOINT lShldr
        {
          OFFSET 8.77824 -1.95073 1.46304
          CHANNELS 3 Zrotation Xrotation Yrotation
          JOINT lForeArm
          {
            OFFSET 28.1742 -1.7115 0.48768
            CHANNELS 3 Zrotation Xrotation Yrotation
            JOINT lHand
            {
              OFFSET 22.5879 0.773209 7.07136
              CHANNELS 3 Zrotation Xrotation Yrotation
              JOINT lThumb1
              {
                OFFSET 1.2192 -0.487915 3.41376
                CHANNELS 3 Zrotation Xrotation Yrotation
                JOINT lThumb2
                {
                  OFFSET 3.37035 -0.52449 3.41376
                  CHANNELS 3 Zrotation Xrotation Yrotation
                  End Site
                  {
                    OFFSET 1.78271 -1.18214 1.43049
                  }
                }
              }
              JOINT lIndex1
              {
                OFFSET 7.75947 0.938293 5.60832
                CHANNELS 3 Zrotation Xrotation Yrotation
                JOINT lIndex2
                {
                  OFFSET 2.54057 -0.884171 1.56538
                  CHANNELS 3 Zrotation Xrotation Yrotation
                  End Site
                  {
                    OFFSET 1.62519 -0.234802 1.16502
                  }
                }
              }
              JOINT lMid1
              {
                OFFSET 8.24714 1.18213 3.41376
                CHANNELS 3 Zrotation Xrotation Yrotation
                JOINT lMid2
                {
                  OFFSET 3.10165 -0.590103 1.0647
                  CHANNELS 3 Zrotation Xrotation Yrotation
                  End Site
                  {
                    OFFSET 2.48547 -0.328903 0.83742
                  }
                }
              }
              JOINT lRing1
              {
                OFFSET 8.82822 0.546677 1.51678
                CHANNELS 3 Zrotation Xrotation Yrotation
                JOINT lRing2
                {
                  OFFSET 2.60934 -0.819778 -0.0198488
                  CHANNELS 3 Zrotation Xrotation Yrotation
                  End Site
                  {
                    OFFSET 2.33842 -0.294052 0.168128
                  }
                }
              }
              JOINT lPinky1
              {
                OFFSET 8.27202 -0.0477905 -0.4584
                CHANNELS 3 Zrotation Xrotation Yrotation
                JOINT lPinky2
                {
                  OFFSET 1.82734 -0.647385 -0.700984
                  CHANNELS 3 Zrotation Xrotation Yrotation
                  End Site
                  {
                    OFFSET 1.69225 -0.51767 -0.607171
                  }
                }
              }
            }
          }
        }
      }
    }
  }
  JOINT rButtock
  {
    OFFSET -8.77824 4.35084 1.2192
    CHANNELS 3 Zrotation Xrotation Yrotation
    JOINT rThigh
    {
      OFFSET 0 -1.70687 -2.19456
      CHANNELS 3 Zrotation Xrotation Yrotation
      JOINT rShin
      {
        OFFSET 0 -36.8199 0.73152
        CHANNELS 3 Zrotation Xrotation Yrotation
        JOINT rFoot
        {
          OFFSET 0.73152 -45.1104 -5.12064
          CHANNELS 3 Zrotation Xrotation Yrotation
          End Site
          {
            OFFSET -1.1221 -3.69964 12.103
          }
        }
      }
    }
  }
  JOINT lButtock
  {
    OFFSET 8.77824 4.35084 1.2192
    CHANNELS 3 Zrotation Xrotation Yrotation
    JOINT lThigh
    {
      OFFSET 0 -1.70687 -2.19456
      CHANNELS 3 Zrotation Xrotation Yrotation
      JOINT lShin
      {
        OFFSET 0 -36.8199 0.73152
        CHANNELS 3 Zrotation Xrotation Yrotation
        JOINT lFoot
        {
          OFFSET -0.73152 -45.1104 -5.12064
          CHANNELS 3 Zrotation Xrotation Yrotation
          End Site
          {
            OFFSET 1.1221 -3.69964 12.103
          }
        }
      }
    }
  }
}
MOTION
Frames:	5
Frame Time:	0.00833333
178.159 75.429 -71.7804 167.97 -78.515 -160.956 -7.76576 42.8773 9.06021 -3.19275 -8.30975 0.578708 3.70877 -11.4509 9.78774 -22.876 3.21065 18.0156 -0.0 0.0 0.0 -0.0 0.0 0.0 4.10191e-15 1.03867e-11 -1.57378e-13 66.3802 27.9787 14.9367 -19.1633 -11.9947 36.6852 -0.710194 -23.2164 -3.4561 9.43415e-10 -1.13785e-09 2.56706e-10 1.61555e-09 -1.9832e-09 4.64002e-10 9.4342e-10 -1.13784e-09 2.56699e-10 7.73091 5.47488 0.417314 9.43416e-10 -1.13785e-09 2.56711e-10 2.90554 0.965183 0.102902 9.43423e-10 -1.13785e-09 2.56713e-10 10.2786 0.731801 0.0259123 9.43411e-10 -1.13785e-09 2.56722e-10 2.22167 -0.733487 -0.20892 3.90461e-15 1.03864e-11 -1.57532e-13 -60.9066 31.4293 -16.987 22.4418 -16.4353 -45.0004 0.98324 -26.9635 4.09991 1.0069e-09 -1.15591e-09 -2.34829e-09 1.79276e-09 -1.99376e-09 -4.03861e-09 1.00689e-09 -1.15591e-09 -2.34828e-09 -7.73091 5.47488 -0.417314 1.00689e-09 -1.15591e-09 -2.34829e-09 -2.90554 0.965183 -0.102902 1.00689e-09 -1.15591e-09 -2.34829e-09 -10.2786 0.731801 -0.0259123 1.0069e-09 -1.15591e-09 -2.34829e-09 -2.22167 -0.733487 0.20892 -2.03217e-16 0.0 -3.88251e-19 -13.8897 -26.8689 -27.1285 -0.898946 59.5441 1.97019 -3.63978 -25.7853 -7.18632 2.03217e-16 0.0 3.88251e-19 26.7598 -51.5232 37.6231 0.568212 47.3205 -0.623028 1.0427 4.00325 10.7196
177.494 75.3996 -71.5793 168.465 -78.8467 -161.376 -8.06226 42.8724 9.4601 -3.23533 -8.27553 0.647502 1.95144 -12.4674 8.15148 -20.0421 3.79642 15.579 -0.0 0.0 0.0 -0.0 0.0 0.0 -2.28798e-14 1.66734e-11 -5.00037e-14 66.4337 27.9546 15.0087 -19.1128 -11.9355 36.567 -0.711663 -23.2385 -3.4598 9.09543e-10 -1.39589e-09 3.20936e-10 1.55429e-09 -2.42981e-09 5.74128e-10 9.0955e-10 -1.39589e-09 3.20927e-10 7.73091 5.47488 0.417314 9.09544e-10 -1.39589e-09 3.20936e-10 2.90554 0.965183 0.102902 9.09552e-10 -1.39589e-09 3.20939e-10 10.2786 0.731801 0.0259123 9.09543e-10 -1.39589e-09 3.20948e-10 2.22167 -0.733487 -0.20892 -2.30437e-14 1.66728e-11 -5.0159e-14 -60.3931 31.4659 -17.5158 22.3924 -16.3579 -44.8634 0.967183 -26.7634 4.06445 9.14741e-10 -1.30206e-09 -2.57236e-09 1.6385e-09 -2.24658e-09 -4.42716e-09 9.14734e-10 -1.30206e-09 -2.57236e-09 -7.73091 5.47488 -0.417314 9.14738e-10 -1.30206e-09 -2.57237e-09 -2.90554 0.965183 -0.102902 9.14736e-10 -1.30206e-09 -2.57237e-09 -10.2786 0.731801 -0.0259123 9.14748e-10 -1.30206e-09 -2.57238e-09 -2.22167 -0.733487 0.20892 -2.03217e-16 0.0 -3.88251e-19 -13.8979 -26.5278 -26.9061 -0.904146 59.6826 1.98824 -3.61156 -25.7161 -7.13844 2.03217e-16 0.0 3.88251e-19 26.8243 -51.7328 37.684 0.590834 48.0937 -0.658648 1.15292 3.41362 10.4314
176.911 75.3567 -71.4169 170.007 -79.2623 -162.667 -8.36338 42.8518 9.87277 -3.26677 -8.25663 0.721213 -0.0388554 -13.3155 6.31929 -16.9172 4.18631 12.8391 -0.0 0.0 0.0 -0.0 0.0 0.0 -5.84611e-14 2.23295e-11 7.11661e-14 66.4737 27.9847 15.0922 -19.0647 -11.879 36.4547 -0.712864 -23.2571 -3.46288 8.26589e-10 -1.5881e-09 3.793e-10 1.40881e-09 -2.76183e-09 6.73089e-10 8.26595e-10 -1.58809e-09 3.7929e-10 7.73091 5.47488 0.417314 8.2659e-10 -1.58809e-09 3.79296e-10 2.90554 0.965183 0.102902 8.26597e-10 -1.5881e-09 3.793e-10 10.2786 0.731801 0.0259123 8.26591e-10 -1.5881e-09 3.79309e-10 2.22167 -0.733487 -0.20892 -5.85866e-14 2.23288e-11 7.10123e-14 -59.9405 31.4825 -17.9722 22.3526 -16.2959 -44.754 0.951735 -26.5678 4.02996 7.80749e-10 -1.38152e-09 -2.67551e-09 1.40912e-09 -2.38424e-09 -4.60757e-09 7.8074e-10 -1.38152e-09 -2.67551e-09 -7.73091 5.47488 -0.417314 7.80745e-10 -1.38153e-09 -2.67552e-09 -2.90554 0.965183 -0.102902 7.80742e-10 -1.38152e-09 -2.67552e-09 -10.2786 0.731801 -0.0259123 7.80754e-10 -1.38152e-09 -2.67553e-09 -2.22167 -0.733487 0.20892 -2.03217e-16 0.0 -3.88251e-19 -13.8616 -26.2053 -26.6585 -0.907985 59.7951 2.00443 -3.59233 -25.6195 -7.11319 2.03217e-16 0.0 3.88251e-19 26.949 -51.9388 37.7883 0.613817 48.8475 -0.694101 1.25255 2.84074 10.1416
176.31 75.3141 -71.2404 171.119 -79.6119 -163.561 -8.65876 42.8149 10.2217 -3.23378 -8.26317 0.784833 -2.11375 -13.8393 4.46744 -13.6844 4.31533 10.0937 -0.0 0.0 0.0 -0.0 0.0 0.0 -8.60272e-14 2.50777e-11 1.57437e-13 66.4186 28.1395 15.2169 -19.0447 -11.8557 36.4084 -0.716117 -23.3069 -3.47118 6.91607e-10 -1.69e-09 4.58951e-10 1.17388e-09 -2.93709e-09 8.08219e-10 6.91613e-10 -1.69e-09 4.58941e-10 7.73091 5.47488 0.417314 6.91608e-10 -1.69e-09 4.58944e-10 2.90554 0.965183 0.102902 6.91616e-10 -1.69e-09 4.58949e-10 10.2786 0.731801 0.0259123 6.91611e-10 -1.69e-09 4.58957e-10 2.22167 -0.733487 -0.20892 -8.6126e-14 2.50777e-11 1.57288e-13 -59.6362 31.466 -18.279 22.3491 -16.2905 -44.7434 0.940261 -26.4204 4.00408 6.46316e-10 -1.396e-09 -2.66559e-09 1.17643e-09 -2.40981e-09 -4.59289e-09 6.46307e-10 -1.396e-09 -2.6656e-09 -7.73091 5.47488 -0.417314 6.46312e-10 -1.396e-09 -2.6656e-09 -2.90554 0.965183 -0.102902 6.46308e-10 -1.396e-09 -2.6656e-09 -10.2786 0.731801 -0.0259123 6.4632e-10 -1.396e-09 -2.66561e-09 -2.22167 -0.733487 0.20892 -2.03217e-16 0.0 -3.88251e-19 -13.7933 -25.9114 -26.419 -0.908952 59.8594 2.01832 -3.60682 -25.4913 -7.16084 2.03217e-16 0.0 3.88251e-19 27.1344 -52.171 37.9356 0.637352 49.5853 -0.729719 1.33995 2.29093 9.83783
175.687 75.2732 -71.0511 171.418 -79.8876 -163.677 -8.96769 42.7471 10.5012 -3.09966 -8.31668 0.838678 -4.33097 -13.8965 2.55613 -10.264 4.04005 7.2915 -0.0 0.0 0.0 -0.0 0.0 0.0 -1.03534e-13 2.33399e-11 1.90459e-13 66.2319 28.4831 15.3666 -19.0608 -11.8744 36.4461 -0.722179 -23.3987 -3.48652 4.40516e-10 -1.71786e-09 6.22097e-10 7.37735e-10 -2.98329e-09 1.08625e-09 4.40523e-10 -1.71786e-09 6.2209e-10 7.73091 5.47488 0.417314 4.40518e-10 -1.71786e-09 6.2209e-10 2.90554 0.965183 0.102902 4.40527e-10 -1.71786e-09 6.22095e-10 10.2786 0.731801 0.0259123 4.4052e-10 -1.71786e-09 6.22101e-10 2.22167 -0.733487 -0.20892 -1.03622e-13 2.33421e-11 1.90322e-13 -59.5564 31.4138 -18.3555 22.4103 -16.3865 -44.9097 0.933933 -26.3386 3.98974 5.12007e-10 -1.37974e-09 -2.57352e-09 9.42165e-10 -2.38299e-09 -4.4369e-09 5.11998e-10 -1.37973e-09 -2.57353e-09 -7.73091 5.47488 -0.417314 5.12003e-10 -1.37974e-09 -2.57353e-09 -2.90554 0.965183 -0.102902 5.11999e-10 -1.37974e-09 -2.57353e-09 -10.2786 0.731801 -0.0259123 5.1201e-10 -1.37973e-09 -2.57354e-09 -2.22167 -0.733487 0.20892 -2.03217e-16 0.0 -3.88251e-19 -13.6744 -25.6709 -26.1764 -0.906328 59.8688 2.03005 -3.67782 -25.3273 -7.32819 2.03217e-16 0.0 3.88251e-19 27.4386 -52.4421 38.1823 0.661915 50.3239 -0.766231 1.41299 1.76805 9.50299
